<?xml version="1.0" encoding="UTF-8"?>
<svg id="Ebene_1" xmlns="http://www.w3.org/2000/svg" xmlns:xlink="http://www.w3.org/1999/xlink" version="1.1" viewBox="0 0 860.59 113.54">
  <!-- Generator: Adobe Illustrator 30.2.1, SVG Export Plug-In . SVG Version: 2.1.1 Build 1)  -->
  <defs>
    <style>
      .st0 {
        fill: none;
      }

      .st1 {
        fill: #99cd4e;
      }

      .st2 {
        fill: #fff;
      }

      .st3 {
        clip-path: url(#clippath);
      }
    </style>
    <clipPath id="clippath">
      <rect class="st0" x="-1.29" y="-.27" width="860.59" height="113.54"/>
    </clipPath>
  </defs>
  <g class="st3">
    <g>
      <path class="st2" d="M325.47,113.27V27.96h45.16V11.35h-113.16v16.61h44.99l.17,85.31h22.84ZM229.79,113.27c7.61,0,12.98-.2,16.09-.61,3.11-.4,4.67-.83,4.67-1.3l-6.92-14.71h-85.48v-27.51h64.72v-17.13h-64.72v-23.88h84.79V11.52h-107.63v101.75h94.48,0ZM81.94,113.27c11.53,0,19.73-.37,24.57-1.12,4.85-.75,7.27-1.58,7.27-2.51l-1.73-3.63v-48.62h-55.72v16.96l22.67-1.73,10.38-.17v23.53c-4.96.12-11.25.26-18.86.43s-16.96.26-28.03.26h-7.1c-5.19,0-8.8-1.07-10.81-3.2-2.02-2.13-3.03-5.16-3.03-9.08v-44.12c0-8.19,4.61-12.29,13.84-12.29h8.83c18.34,0,32.33.2,41.96.61,9.63.4,15.43.78,17.39,1.12l3.46-14.36c0-.92-2.11-1.82-6.32-2.68-4.21-.87-10.29-1.3-18.26-1.3H30.37c-11.19,0-19.27,2.62-24.23,7.87C1.19,24.47-1.29,32.63-1.29,43.71v38.59c0,6.81.92,12.52,2.77,17.13,1.84,4.62,5.07,8.08,9.69,10.38,4.61,2.31,11.02,3.46,19.21,3.46h51.56Z"/>
      <path class="st2" d="M838.53,113.27c7.61,0,12.98-.2,16.09-.61,3.11-.4,4.67-.83,4.67-1.3l-6.92-14.71h-85.48v-27.51h64.72v-17.13h-64.72v-23.88h84.79V11.52h-107.63v101.74h94.48,0ZM704.95,113.27c7.61,0,12.98-.2,16.09-.61,3.11-.4,4.67-.83,4.67-1.3l-6.92-14.71h-77.52l78.39-68.52V11.52h-107.46v16.61h76.83l-76.83,68.35v16.78h92.75ZM590.38,11.52h-22.84v101.75h22.84V11.52ZM505.55,113.25l45.16-91.19,2.77-10.36-23.53-.02-32.88,70.08-4.5,12.48h-1.56l-4.67-12.46-32.53-70.08h-24.23l48.28,101.57,27.69-.02h0Z"/>
    </g>
  </g>
  <polygon class="st1" points="483.43 -.27 444.66 81.78 440.16 94.24 438.61 94.24 433.93 81.78 401.4 11.7 377.18 11.7 425.46 113.27 453.14 113.27 504.19 10.11 506.96 -.27 483.43 -.27"/>
</svg>