<?xml version="1.0" encoding="UTF-8"?>
<svg id="Ebene_1" xmlns="http://www.w3.org/2000/svg" xmlns:xlink="http://www.w3.org/1999/xlink" version="1.1" viewBox="0 0 860.59 113.54">
  <!-- Generator: Adobe Illustrator 30.2.1, SVG Export Plug-In . SVG Version: 2.1.1 Build 1)  -->
  <defs>
    <style>
      .st0 {
        fill: none;
      }

      .st1 {
        fill: #2b363f;
      }

      .st2 {
        fill: #e5bd47;
      }

      .st3 {
        clip-path: url(#clippath);
      }
    </style>
    <clipPath id="clippath">
      <rect class="st0" width="860.59" height="113.54"/>
    </clipPath>
  </defs>
  <g class="st3">
    <g>
      <path class="st1" d="M326.77,113.54V28.23h45.16V11.62h-113.16v16.61h44.99l.17,85.31s22.84,0,22.84,0ZM231.08,113.54c7.61,0,12.98-.2,16.09-.61,3.11-.4,4.67-.83,4.67-1.3l-6.92-14.71h-85.48v-27.51h64.72v-17.13h-64.72v-23.88h84.79V11.79h-107.63v101.75h94.48,0ZM83.23,113.54c11.53,0,19.73-.37,24.57-1.12,4.85-.75,7.27-1.58,7.27-2.51l-1.73-3.63v-48.62h-55.72v16.96l22.67-1.73,10.38-.17v23.53c-4.96.12-11.25.26-18.86.43s-16.96.26-28.03.26h-7.1c-5.19,0-8.8-1.07-10.81-3.2-2.02-2.13-3.03-5.16-3.03-9.08v-44.12c0-8.19,4.61-12.29,13.84-12.29h8.83c18.34,0,32.33.2,41.96.61,9.63.4,15.43.78,17.39,1.12l3.46-14.36c0-.92-2.11-1.82-6.32-2.68-4.21-.87-10.29-1.3-18.26-1.3H31.67c-11.19,0-19.27,2.62-24.23,7.87C2.48,24.74,0,32.9,0,43.98v38.59c0,6.8.92,12.51,2.77,17.13,1.84,4.62,5.07,8.08,9.69,10.38,4.61,2.31,11.02,3.46,19.21,3.46,0,0,51.56,0,51.56,0Z"/>
      <path class="st1" d="M839.82,113.54c7.61,0,12.98-.2,16.09-.61,3.11-.4,4.67-.84,4.67-1.3l-6.92-14.71h-85.48v-27.51h64.72v-17.13h-64.72v-23.88h84.79V11.79h-107.63v101.74h94.48ZM706.24,113.54c7.61,0,12.98-.2,16.09-.61,3.11-.4,4.67-.84,4.67-1.3l-6.92-14.71h-77.52l78.39-68.52V11.79h-107.46v16.61h76.83l-76.83,68.35v16.78h92.75ZM591.67,11.79h-22.84v101.75h22.84V11.79ZM506.84,113.52l45.16-91.19,2.77-10.36-23.53-.02-32.88,70.08-4.5,12.48h-1.56l-4.67-12.46-32.53-70.08h-24.23l48.28,101.57,27.69-.02h0Z"/>
    </g>
  </g>
  <polygon class="st2" points="484.72 0 445.96 82.05 441.46 94.5 439.9 94.5 435.23 82.05 402.7 11.97 378.47 11.97 426.75 113.54 454.43 113.54 505.49 10.38 508.26 0 484.72 0"/>
</svg>